<svg xmlns="http://www.w3.org/2000/svg" xmlns:xlink="http://www.w3.org/1999/xlink" width="168" height="231" viewBox="0 0 168 231">
  <defs>
    <filter id="Rectangle_43" x="0" y="55" width="168" height="176" filterUnits="userSpaceOnUse">
      <feOffset dy="3" input="SourceAlpha"/>
      <feGaussianBlur stdDeviation="3" result="blur"/>
      <feFlood/>
      <feComposite operator="in" in2="blur"/>
      <feComposite in="SourceGraphic"/>
    </filter>
  </defs>
  <g id="Groupe_7" data-name="Groupe 7" transform="translate(-454 -63.333)">
    <g transform="matrix(1, 0, 0, 1, 454, 63.33)" filter="url(#Rectangle_43)">
      <path id="Rectangle_43-2" data-name="Rectangle 43" d="M0,0H148a0,0,0,0,1,0,0V123.12A32.88,32.88,0,0,1,115.12,156H32.88A32.88,32.88,0,0,1,0,123.12V0A0,0,0,0,1,0,0Z" transform="translate(10 62)" fill="#584848" stroke="#fff" stroke-width="2"/>
    </g>
    <path id="Tracé_12" data-name="Tracé 12" d="M16.56,0H121.44C130.586,0,138,6.3,138,14.082V42.944c0,2.583-2.462,4.677-5.5,4.677H5.5c-3.038,0-5.5-2.094-5.5-4.677V14.082C0,6.3,7.414,0,16.56,0Z" transform="translate(469 64.333)" fill="#584848" stroke="#fff" stroke-width="2"/>
  </g>
</svg>
