<svg xmlns="http://www.w3.org/2000/svg" width="196.135" height="236.341" viewBox="0 0 196.135 236.341">
  <g id="Tracé_20" data-name="Tracé 20" fill="#5d5956">
    <path d="M 148.2744750976562 235.841064453125 L 47.86074447631836 235.841064453125 C 41.46733093261719 235.841064453125 35.2653923034668 234.5797729492188 29.42718505859375 232.0922088623047 C 23.78765678405762 229.6893005371094 18.72268486022949 226.2491760253906 14.37295055389404 221.8673858642578 C 10.02297973632812 217.4853210449219 6.607744693756104 212.382568359375 4.222156524658203 206.7008209228516 C 1.752332806587219 200.8184204101562 0.500009298324585 194.5694732666016 0.500009298324585 188.1275024414062 L 0.500009298324585 48.21359252929688 C 0.500009298324585 41.77162170410156 1.752332806587219 35.52265167236328 4.222156524658203 29.64023780822754 C 6.607744693756104 23.95850372314453 10.02295017242432 18.85573768615723 14.37295055389404 14.4736795425415 C 18.72268486022949 10.09188556671143 23.78765678405762 6.651738166809082 29.42718505859375 4.248855590820312 C 35.2653923034668 1.761296987533569 41.46733093261719 0.5000028014183044 47.86074447631836 0.5000028014183044 L 148.2744750976562 0.5000028014183044 C 154.6679229736328 0.5000028014183044 160.8698577880859 1.761296987533569 166.7080688476562 4.248855590820312 C 172.3475952148438 6.651738166809082 177.4125671386719 10.09188556671143 181.7622985839844 14.4736795425415 C 186.1123046875 18.85573768615723 189.5275115966797 23.95850372314453 191.9131011962891 29.64023780822754 C 194.3829193115234 35.52265167236328 195.6352386474609 41.77162170410156 195.6352386474609 48.21359252929688 L 195.6352386474609 188.1275024414062 C 195.6352386474609 194.5694732666016 194.3829193115234 200.8184204101562 191.9131011962891 206.7008209228516 C 189.5275115966797 212.382568359375 186.1123046875 217.4853210449219 181.7622985839844 221.8673858642578 C 177.4125671386719 226.2491760253906 172.3475952148438 229.6893005371094 166.7080688476562 232.0922088623047 C 160.8698577880859 234.5797729492188 154.6679229736328 235.841064453125 148.2744750976562 235.841064453125 Z" stroke="none"/>
    <path d="M 47.86074829101562 1 C 41.53506469726562 1 35.39906311035156 2.247848510742188 29.62318420410156 4.708847045898438 C 24.04335021972656 7.086318969726562 19.03181457519531 10.49018859863281 14.727783203125 14.82594299316406 C 10.42327880859375 19.16218566894531 7.043777465820312 24.21156311035156 4.683151245117188 29.83378601074219 C 2.23919677734375 35.65455627441406 1 41.83840942382812 1 48.21356201171875 L 1 188.1274719238281 C 1 194.5026245117188 2.23919677734375 200.6864624023438 4.683151245117188 206.5072479248047 C 7.043777465820312 212.1294708251953 10.42327880859375 217.1788787841797 14.727783203125 221.5151214599609 C 19.03181457519531 225.8508758544922 24.04335021972656 229.2547454833984 29.62318420410156 231.6322174072266 C 35.39906311035156 234.0932159423828 41.53506469726562 235.341064453125 47.86074829101562 235.341064453125 L 148.2745056152344 235.341064453125 C 154.6001892089844 235.341064453125 160.7361907958984 234.0932159423828 166.5120697021484 231.6322174072266 C 172.0919036865234 229.2547454833984 177.1034393310547 225.8508758544922 181.407470703125 221.5151214599609 C 185.7119750976562 217.1788787841797 189.0914764404297 212.1294708251953 191.4521026611328 206.5072479248047 C 193.8960571289062 200.6864624023438 195.13525390625 194.5026245117188 195.13525390625 188.1274719238281 L 195.13525390625 48.21356201171875 C 195.13525390625 41.83840942382812 193.8960571289062 35.65455627441406 191.4521026611328 29.83378601074219 C 189.0914764404297 24.21156311035156 185.7119750976562 19.16218566894531 181.407470703125 14.82594299316406 C 177.1034393310547 10.49018859863281 172.0919036865234 7.086318969726562 166.5120697021484 4.708847045898438 C 160.7361907958984 2.247848510742188 154.6001892089844 1 148.2745056152344 1 L 47.86074829101562 1 M 47.86074829101562 0 L 148.2745056152344 0 C 174.7072448730469 0 196.13525390625 21.5859375 196.13525390625 48.21356201171875 L 196.13525390625 188.1274719238281 C 196.13525390625 214.7550964355469 174.7072448730469 236.341064453125 148.2745056152344 236.341064453125 L 47.86074829101562 236.341064453125 C 21.42800903320312 236.341064453125 0 214.7550964355469 0 188.1274719238281 L 0 48.21356201171875 C 0 21.5859375 21.42800903320312 0 47.86074829101562 0 Z" stroke="none" fill="#707070"/>
  </g>
</svg>
