<svg xmlns="http://www.w3.org/2000/svg" xmlns:xlink="http://www.w3.org/1999/xlink" width="180.109" height="227.655" viewBox="0 0 180.109 227.655">
  <defs>
    <filter id="Tracé_11" x="0" y="0.5" width="97.185" height="226.921" filterUnits="userSpaceOnUse">
      <feOffset dy="3" input="SourceAlpha"/>
      <feGaussianBlur stdDeviation="3" result="blur"/>
      <feFlood flood-opacity="0.69"/>
      <feComposite operator="in" in2="blur"/>
      <feComposite in="SourceGraphic"/>
    </filter>
    <filter id="Tracé_11-2" x="81.59" y="0" width="98.518" height="227.655" filterUnits="userSpaceOnUse">
      <feOffset dx="3" dy="3" input="SourceAlpha"/>
      <feGaussianBlur stdDeviation="3" result="blur-2"/>
      <feFlood/>
      <feComposite operator="in" in2="blur-2"/>
      <feComposite in="SourceGraphic"/>
    </filter>
  </defs>
  <g id="Groupe_4" data-name="Groupe 4" transform="translate(-436.276 -106.818)">
    <g transform="matrix(1, 0, 0, 1, 436.28, 106.82)" filter="url(#Tracé_11)">
      <path id="Tracé_11-3" data-name="Tracé 11" d="M523.533,131.269c-.033,4.2-9.546,2.921-8.4,14.379s6.669,21.359,8.532,28.965-.128,147.626-.128,147.626L445.276,174.811s22.152-5.729,25.208-24.826-11.458-34.757-11.458-34.757l5.729-1.91h58.782S523.566,127.067,523.533,131.269Z" transform="translate(-436.28 -106.82)" fill="#fff"/>
    </g>
    <g transform="matrix(1, 0, 0, 1, 436.28, 106.82)" filter="url(#Tracé_11-2)">
      <path id="Tracé_11-4" data-name="Tracé 11" d="M525.385,113.318h58.782l5.729,1.91s-14.514,15.66-11.458,34.757,25.208,24.826,25.208,24.826L525.385,322.239s-1.991-140.02-.128-147.626,7.386-17.507,8.532-28.965-8.367-10.177-8.4-14.379S525.385,113.318,525.385,113.318Z" transform="translate(-436.28 -106.82)" fill="#bba7a7" stroke="#fff" stroke-width="1"/>
    </g>
  </g>
</svg>
