<svg xmlns="http://www.w3.org/2000/svg" xmlns:xlink="http://www.w3.org/1999/xlink" width="201.84" height="256.915" viewBox="0 0 201.84 256.915">
  <defs>
    <filter id="Tracé_14" x="0" y="28.767" width="112.921" height="228.148" filterUnits="userSpaceOnUse">
      <feOffset dy="3" input="SourceAlpha"/>
      <feGaussianBlur stdDeviation="3" result="blur"/>
      <feFlood/>
      <feComposite operator="in" in2="blur"/>
      <feComposite in="SourceGraphic"/>
    </filter>
    <filter id="Tracé_17" x="70.686" y="0" width="113.395" height="229.999" filterUnits="userSpaceOnUse">
      <feOffset dy="-4" input="SourceAlpha"/>
      <feGaussianBlur stdDeviation="3" result="blur-2"/>
      <feFlood/>
      <feComposite operator="in" in2="blur-2"/>
      <feComposite in="SourceGraphic"/>
    </filter>
    <filter id="Tracé_19" x="90.109" y="23.497" width="111.731" height="229.993" filterUnits="userSpaceOnUse">
      <feOffset dy="3" input="SourceAlpha"/>
      <feGaussianBlur stdDeviation="3" result="blur-3"/>
      <feFlood/>
      <feComposite operator="in" in2="blur-3"/>
      <feComposite in="SourceGraphic"/>
    </filter>
    <filter id="Tracé_18" x="70.377" y="33.963" width="43.69" height="218.805" filterUnits="userSpaceOnUse">
      <feOffset dy="3" input="SourceAlpha"/>
      <feGaussianBlur stdDeviation="3" result="blur-4"/>
      <feFlood flood-opacity="0.161"/>
      <feComposite operator="in" in2="blur-4"/>
      <feComposite in="SourceGraphic"/>
    </filter>
  </defs>
  <g id="Groupe_8" data-name="Groupe 8" transform="translate(-100.891 -47.171)">
    <g transform="matrix(1, 0, 0, 1, 100.89, 47.17)" filter="url(#Tracé_14)">
      <path id="Tracé_14-2" data-name="Tracé 14" d="M201.258,260.352q-24.1,15.666-48.2,31.33-21.437-91.515-42.872-183.03l94.367-26.383Q202.908,171.311,201.258,260.352Z" transform="translate(-100.89 -47.17)" fill="#b2b2b2" stroke="#fff" stroke-miterlimit="10" stroke-width="0.5"/>
    </g>
    <path id="Tracé_15" data-name="Tracé 15" d="M144.816,290.033q-17.313-90.69-34.627-181.381a26.116,26.116,0,0,0,19.787,8.245q15.4,88.884,30.8,177.769a15.275,15.275,0,0,1-7.717.314A15.463,15.463,0,0,1,144.816,290.033Z" fill="#fff"/>
    <path id="Tracé_16" data-name="Tracé 16" d="M209.124,278.491l-48.346,16.175L129.976,116.9l50.852-10.537Z" fill="#b2b2b2" stroke="#fff" stroke-miterlimit="10" stroke-width="0.5"/>
    <g transform="matrix(1, 0, 0, 1, 100.89, 47.17)" filter="url(#Tracé_17)">
      <path id="Tracé_17-2" data-name="Tracé 17" d="M272.162,238.916,188.2,271.45,181.092,87.216,275.46,60.833Q273.81,149.875,272.162,238.916Z" transform="translate(-100.89 -47.17)" fill="#b2b2b2" stroke="#fff" stroke-miterlimit="10" stroke-width="1"/>
    </g>
    <g transform="matrix(1, 0, 0, 1, 100.89, 47.17)" filter="url(#Tracé_19)">
      <path id="Tracé_19-2" data-name="Tracé 19" d="M289.921,255.406l-83.963,32.533q-2.728-92.7-5.458-185.4v-.263l92.719-24.948Q291.569,166.365,289.921,255.406Z" transform="translate(-100.89 -47.17)" fill="#b2b2b2" stroke="#fff" stroke-miterlimit="10" stroke-width="1"/>
    </g>
    <g transform="matrix(1, 0, 0, 1, 100.89, 47.17)" filter="url(#Tracé_18)">
      <path id="Tracé_18-2" data-name="Tracé 18" d="M205.958,287.939a26.159,26.159,0,0,1-19.919-9.448q-2.448-80.8-4.9-161.594l-.314-10.537-.165-5.788-.033-1.006-.214-7.4-.148-5.029a33.347,33.347,0,0,0,19.968,15.2l.264.2.429,14.363Z" transform="translate(-100.89 -47.17)" fill="#fff"/>
    </g>
  </g>
</svg>
